<svg width="287" height="182" viewBox="0 0 287 182" fill="none" xmlns="http://www.w3.org/2000/svg">
<rect x="2" y="2" width="283" height="178" rx="5" fill="white" stroke="#5497C6" stroke-width="4"/>
<rect x="8" y="65" width="64" height="94" rx="2" fill="#5497C6"/>
<line x1="2" y1="59" x2="285" y2="59" stroke="#5497C6" stroke-width="2"/>
<line x1="2" y1="165" x2="285" y2="165" stroke="#5497C6" stroke-width="2"/>
<path d="M50.2333 117.674C53.7113 118.785 57.3581 120.772 60.171 123.205C64.9754 127.397 68.0167 133.494 68.6117 140.127C68.8111 142.182 69.1138 145.556 67.791 147.088C64.5512 150.84 57.2112 151.112 52.813 151.623C43.8723 151.949 23.12 153.032 15.3813 148.974C14.0178 148.259 12.7364 147.241 12.2526 145.615C11.9013 144.434 11.9954 143.132 12.0714 141.914C12.3163 137.986 13.0891 134.229 14.8143 130.724C18.0269 124.197 23.9726 119.829 30.4275 117.713C30.85 117.768 33.2547 119.199 34.2922 119.523C40.2277 121.368 44.8813 120.759 50.2333 117.674Z" fill="white"/>
<path d="M39.2164 78.0756C43.1547 77.6348 47.9709 79.1499 50.9927 81.8919C62.6348 92.4572 58.6314 116.547 42.1399 118.178C37.5188 118.426 33.7172 117.578 30.0776 114.385C20.2229 105.74 21.4593 85.6419 33.3642 79.6981C35.3059 78.7292 37.1169 78.3095 39.2164 78.0756Z" fill="white"/>
<rect x="78.5" y="95.5" width="197" height="19" fill="white" stroke="black" stroke-dasharray="2 2"/>
<path d="M30.5 24.5C25.3 27.3 15 25.6667 10.5 24.5C12.8333 31.3333 19 45.3 25 46.5C32.5 48 46.5 40 49.5 38.5C52.5 37 52 39.5 54.5 40C57 40.5 62 35 56 33.5C50 32 52 20.5 49.5 20.5C47 20.5 37 21 30.5 24.5Z" fill="#5497C6"/>
<path d="M66 46.5V14M10.5 24.5C15 25.6667 25.3 27.3 30.5 24.5C37 21 47 20.5 49.5 20.5C52 20.5 50 32 56 33.5C62 35 57 40.5 54.5 40C52 39.5 52.5 37 49.5 38.5C46.5 40 32.5 48 25 46.5C19 45.3 12.8333 31.3333 10.5 24.5Z" stroke="#5497C6" stroke-width="2"/>
<line x1="69" y1="31" x2="99" y2="31" stroke="#5497C6" stroke-width="3"/>
<line x1="113" y1="17.5" x2="177" y2="17.5" stroke="#5497C6" stroke-width="4"/>
<line x1="113" y1="25.5" x2="226" y2="25.5" stroke="#5497C6" stroke-width="4"/>
<line x1="69" y1="37" x2="102" y2="37" stroke="#5497C6" stroke-width="3"/>
<line x1="69" y1="43" x2="91" y2="43" stroke="#5497C6" stroke-width="3"/>
<rect x="69" y="15.5" width="12" height="9" rx="3" fill="#5497C6"/>
<path d="M113.457 40.2988C113.457 39.6973 113.547 39.1348 113.727 38.6113C113.91 38.084 114.172 37.627 114.512 37.2402C114.852 36.8496 115.264 36.543 115.748 36.3203C116.232 36.0938 116.777 35.9805 117.383 35.9805C117.82 35.9805 118.225 36.0371 118.596 36.1504C118.971 36.2637 119.307 36.4238 119.604 36.6309C119.904 36.8379 120.162 37.0879 120.377 37.3809C120.592 37.6738 120.762 38.002 120.887 38.3652L119.252 38.9102C119.205 38.7539 119.131 38.5938 119.029 38.4297C118.928 38.2617 118.799 38.1113 118.643 37.9785C118.486 37.8418 118.303 37.7305 118.092 37.6445C117.885 37.5586 117.652 37.5156 117.395 37.5156C117.008 37.5156 116.676 37.5957 116.398 37.7559C116.125 37.9121 115.9 38.1211 115.725 38.3828C115.549 38.6406 115.418 38.9355 115.332 39.2676C115.25 39.5957 115.209 39.9316 115.209 40.2754V40.3223C115.209 40.6699 115.25 41.0098 115.332 41.3418C115.418 41.6699 115.549 41.9629 115.725 42.2207C115.9 42.4785 116.125 42.6875 116.398 42.8477C116.676 43.0039 117.008 43.082 117.395 43.082C117.652 43.082 117.885 43.0391 118.092 42.9531C118.303 42.8672 118.486 42.7578 118.643 42.625C118.799 42.4883 118.928 42.3379 119.029 42.1738C119.131 42.0098 119.205 41.8496 119.252 41.6934L120.887 42.2324C120.762 42.5957 120.592 42.9238 120.377 43.2168C120.162 43.5098 119.904 43.7617 119.604 43.9727C119.307 44.1797 118.971 44.3398 118.596 44.4531C118.225 44.5625 117.82 44.6172 117.383 44.6172C116.777 44.6172 116.232 44.5059 115.748 44.2832C115.264 44.0605 114.852 43.7539 114.512 43.3633C114.172 42.9727 113.91 42.5156 113.727 41.9922C113.547 41.4688 113.457 40.9043 113.457 40.2988ZM124.009 41.9219C124.036 42.1094 124.095 42.2812 124.185 42.4375C124.279 42.5938 124.396 42.7285 124.536 42.8418C124.677 42.9512 124.839 43.0371 125.023 43.0996C125.206 43.1621 125.402 43.1934 125.609 43.1934C125.847 43.1934 126.105 43.1484 126.382 43.0586C126.659 42.9648 126.913 42.8301 127.144 42.6543L127.923 43.791C127.63 44.0371 127.271 44.2363 126.845 44.3887C126.419 44.541 125.966 44.6172 125.486 44.6172C125.052 44.6172 124.644 44.543 124.261 44.3945C123.878 44.2461 123.542 44.0312 123.253 43.75C122.968 43.4688 122.741 43.127 122.574 42.7246C122.409 42.3223 122.327 41.8691 122.327 41.3652C122.327 40.9043 122.4 40.4746 122.544 40.0762C122.693 39.6777 122.898 39.332 123.159 39.0391C123.425 38.7461 123.741 38.5176 124.109 38.3535C124.476 38.1855 124.882 38.1016 125.327 38.1016C125.741 38.1016 126.126 38.1777 126.482 38.3301C126.837 38.4785 127.146 38.6895 127.408 38.9629C127.669 39.2324 127.874 39.5566 128.023 39.9355C128.171 40.3145 128.245 40.7324 128.245 41.1895V41.9219H124.009ZM125.322 39.5078C124.974 39.5078 124.679 39.625 124.437 39.8594C124.199 40.0898 124.06 40.3691 124.021 40.6973H126.552C126.544 40.3652 126.423 40.084 126.189 39.8535C125.954 39.623 125.665 39.5078 125.322 39.5078ZM133.524 39.7949H133.354C133.124 39.7949 132.903 39.8184 132.692 39.8652C132.485 39.9121 132.301 39.998 132.141 40.123C131.981 40.2441 131.852 40.4121 131.754 40.627C131.661 40.8418 131.614 41.1172 131.614 41.4531V44.5H129.997V38.2246H131.614V38.9336C131.68 38.8281 131.766 38.7266 131.872 38.6289C131.977 38.5312 132.1 38.4453 132.241 38.3711C132.381 38.293 132.54 38.2305 132.715 38.1836C132.891 38.1367 133.081 38.1133 133.284 38.1133H133.524V39.7949ZM137.566 42.6309C137.566 42.7051 137.576 42.7754 137.596 42.8418C137.615 42.9082 137.648 42.9668 137.695 43.0176C137.746 43.0645 137.816 43.1016 137.906 43.1289C137.996 43.1562 138.111 43.1699 138.252 43.1699C138.31 43.1699 138.377 43.168 138.451 43.1641C138.525 43.1562 138.599 43.1484 138.674 43.1406C138.748 43.1328 138.816 43.123 138.879 43.1113C138.945 43.0996 139 43.0898 139.043 43.082L139.189 44.5117C139.037 44.5312 138.879 44.5488 138.715 44.5645C138.574 44.5801 138.418 44.5918 138.246 44.5996C138.074 44.6113 137.9 44.6172 137.724 44.6172C137.166 44.6172 136.73 44.4902 136.418 44.2363C136.105 43.9824 135.949 43.5781 135.949 43.0234V39.6309H134.818V38.2246H135.949V36.4492L137.566 36.0156V38.2246H139.213V39.6309H137.566V42.6309ZM142.569 44.5H140.952V38.2246H142.569V44.5ZM140.782 36.5781C140.782 36.4453 140.808 36.3203 140.859 36.2031C140.909 36.082 140.978 35.9785 141.064 35.8926C141.153 35.8027 141.257 35.7324 141.374 35.6816C141.491 35.6309 141.618 35.6055 141.755 35.6055C141.888 35.6055 142.013 35.6309 142.13 35.6816C142.251 35.7324 142.355 35.8027 142.441 35.8926C142.53 35.9785 142.601 36.082 142.651 36.2031C142.702 36.3203 142.728 36.4453 142.728 36.5781C142.728 36.7148 142.702 36.8418 142.651 36.959C142.601 37.0762 142.53 37.1797 142.441 37.2695C142.355 37.3555 142.251 37.4238 142.13 37.4746C142.013 37.5254 141.888 37.5508 141.755 37.5508C141.618 37.5508 141.491 37.5254 141.374 37.4746C141.257 37.4238 141.153 37.3555 141.064 37.2695C140.978 37.1797 140.909 37.0762 140.859 36.959C140.808 36.8418 140.782 36.7148 140.782 36.5781ZM146.852 38.2246H148.053V39.6309H146.852V44.5H145.235V39.6309H144.239V38.2246H145.235V37.457C145.235 37.1836 145.282 36.9473 145.375 36.748C145.469 36.5449 145.598 36.3789 145.762 36.25C145.93 36.1172 146.129 36.0195 146.36 35.957C146.594 35.8906 146.852 35.8574 147.133 35.8574C147.274 35.8574 147.411 35.8613 147.543 35.8691C147.676 35.877 147.799 35.8848 147.913 35.8926C148.026 35.9004 148.125 35.9102 148.211 35.9219C148.301 35.9336 148.37 35.9414 148.416 35.9453L148.282 37.3223C148.235 37.3145 148.176 37.3066 148.106 37.2988C148.039 37.291 147.969 37.2852 147.895 37.2812C147.821 37.2734 147.748 37.2695 147.678 37.2695C147.608 37.2656 147.545 37.2637 147.491 37.2637C147.26 37.2637 147.096 37.3086 146.998 37.3984C146.901 37.4844 146.852 37.5957 146.852 37.7324V38.2246ZM150.596 44.5H148.979V38.2246H150.596V44.5ZM148.809 36.5781C148.809 36.4453 148.834 36.3203 148.885 36.2031C148.936 36.082 149.004 35.9785 149.09 35.8926C149.18 35.8027 149.284 35.7324 149.401 35.6816C149.518 35.6309 149.645 35.6055 149.782 35.6055C149.914 35.6055 150.039 35.6309 150.157 35.6816C150.278 35.7324 150.381 35.8027 150.467 35.8926C150.557 35.9785 150.627 36.082 150.678 36.2031C150.729 36.3203 150.754 36.4453 150.754 36.5781C150.754 36.7148 150.729 36.8418 150.678 36.959C150.627 37.0762 150.557 37.1797 150.467 37.2695C150.381 37.3555 150.278 37.4238 150.157 37.4746C150.039 37.5254 149.914 37.5508 149.782 37.5508C149.645 37.5508 149.518 37.5254 149.401 37.4746C149.284 37.4238 149.18 37.3555 149.09 37.2695C149.004 37.1797 148.936 37.0762 148.885 36.959C148.834 36.8418 148.809 36.7148 148.809 36.5781ZM154.058 41.3945C154.058 41.5977 154.086 41.8027 154.14 42.0098C154.195 42.2129 154.279 42.3965 154.392 42.5605C154.506 42.7246 154.65 42.8594 154.826 42.9648C155.006 43.0664 155.218 43.1172 155.465 43.1172C155.625 43.1172 155.769 43.0957 155.898 43.0527C156.031 43.0098 156.148 42.9512 156.25 42.877C156.355 42.7988 156.447 42.709 156.525 42.6074C156.607 42.502 156.677 42.3887 156.736 42.2676L158.154 43C158.052 43.2461 157.912 43.4688 157.732 43.668C157.556 43.8672 157.351 44.0371 157.117 44.1777C156.882 44.3184 156.623 44.4258 156.338 44.5C156.052 44.5781 155.75 44.6172 155.429 44.6172C154.988 44.6172 154.582 44.5352 154.211 44.3711C153.84 44.2031 153.519 43.9746 153.25 43.6855C152.98 43.3965 152.769 43.0547 152.617 42.6602C152.465 42.2617 152.388 41.8301 152.388 41.3652C152.388 40.9043 152.465 40.4746 152.617 40.0762C152.769 39.6777 152.98 39.332 153.25 39.0391C153.519 38.7461 153.84 38.5176 154.211 38.3535C154.582 38.1855 154.988 38.1016 155.429 38.1016C155.75 38.1016 156.052 38.1406 156.338 38.2188C156.623 38.293 156.882 38.4023 157.117 38.5469C157.351 38.6875 157.556 38.8574 157.732 39.0566C157.912 39.2559 158.052 39.4785 158.154 39.7246L156.736 40.457C156.677 40.3359 156.607 40.2246 156.525 40.123C156.447 40.0176 156.355 39.9277 156.25 39.8535C156.148 39.7754 156.031 39.7148 155.898 39.6719C155.769 39.625 155.625 39.6016 155.465 39.6016C155.218 39.6016 155.006 39.6543 154.826 39.7598C154.65 39.8613 154.506 39.9961 154.392 40.1641C154.279 40.3281 154.195 40.5137 154.14 40.7207C154.086 40.9277 154.058 41.1348 154.058 41.3418V41.3945ZM161.897 41.9512C161.698 41.9824 161.538 42.0527 161.417 42.1621C161.296 42.2676 161.235 42.4121 161.235 42.5957C161.235 42.7988 161.31 42.9746 161.458 43.123C161.606 43.2676 161.825 43.3398 162.114 43.3398C162.419 43.3398 162.659 43.252 162.835 43.0762C163.011 42.9004 163.099 42.668 163.099 42.3789V41.7461L161.897 41.9512ZM163.362 43.9082C163.296 43.9824 163.214 44.0625 163.116 44.1484C163.022 44.2305 162.909 44.3066 162.776 44.377C162.647 44.4434 162.495 44.5 162.319 44.5469C162.144 44.5938 161.946 44.6172 161.728 44.6172C161.415 44.6172 161.126 44.5684 160.86 44.4707C160.599 44.3691 160.368 44.2285 160.169 44.0488C159.97 43.8691 159.813 43.6621 159.7 43.4277C159.587 43.1895 159.53 42.9316 159.53 42.6543C159.53 42.1504 159.686 41.7383 159.999 41.418C160.311 41.0977 160.743 40.8965 161.294 40.8145L163.099 40.5508V40.4336C163.099 40.1523 163.013 39.9297 162.841 39.7656C162.669 39.6016 162.39 39.5195 162.003 39.5195C161.843 39.5195 161.681 39.5391 161.517 39.5781C161.353 39.6133 161.194 39.6543 161.042 39.7012C160.894 39.748 160.755 39.8027 160.626 39.8652C160.497 39.9238 160.384 39.9766 160.286 40.0234L159.653 38.7871C160.013 38.5879 160.411 38.4238 160.849 38.2949C161.29 38.166 161.747 38.1016 162.22 38.1016C162.509 38.1016 162.8 38.1328 163.093 38.1953C163.39 38.2539 163.657 38.3633 163.895 38.5234C164.138 38.6836 164.335 38.9023 164.487 39.1797C164.64 39.4531 164.716 39.8027 164.716 40.2285V42.8066C164.716 42.9902 164.763 43.127 164.856 43.2168C164.954 43.3027 165.087 43.3828 165.255 43.457L164.522 44.6172C164.226 44.5859 163.987 44.5098 163.808 44.3887C163.628 44.2637 163.479 44.1035 163.362 43.9082ZM168.858 42.6309C168.858 42.7051 168.867 42.7754 168.887 42.8418C168.906 42.9082 168.94 42.9668 168.987 43.0176C169.037 43.0645 169.108 43.1016 169.198 43.1289C169.287 43.1562 169.403 43.1699 169.543 43.1699C169.602 43.1699 169.668 43.168 169.742 43.1641C169.817 43.1562 169.891 43.1484 169.965 43.1406C170.039 43.1328 170.108 43.123 170.17 43.1113C170.237 43.0996 170.291 43.0898 170.334 43.082L170.481 44.5117C170.328 44.5312 170.17 44.5488 170.006 44.5645C169.865 44.5801 169.709 44.5918 169.537 44.5996C169.365 44.6113 169.192 44.6172 169.016 44.6172C168.457 44.6172 168.022 44.4902 167.709 44.2363C167.397 43.9824 167.24 43.5781 167.24 43.0234V39.6309H166.11V38.2246H167.24V36.4492L168.858 36.0156V38.2246H170.504V39.6309H168.858V42.6309ZM173.597 41.9219C173.625 42.1094 173.683 42.2812 173.773 42.4375C173.867 42.5938 173.984 42.7285 174.125 42.8418C174.265 42.9512 174.427 43.0371 174.611 43.0996C174.794 43.1621 174.99 43.1934 175.197 43.1934C175.435 43.1934 175.693 43.1484 175.97 43.0586C176.248 42.9648 176.501 42.8301 176.732 42.6543L177.511 43.791C177.218 44.0371 176.859 44.2363 176.433 44.3887C176.007 44.541 175.554 44.6172 175.074 44.6172C174.64 44.6172 174.232 44.543 173.849 44.3945C173.466 44.2461 173.13 44.0312 172.841 43.75C172.556 43.4688 172.33 43.127 172.162 42.7246C171.998 42.3223 171.916 41.8691 171.916 41.3652C171.916 40.9043 171.988 40.4746 172.132 40.0762C172.281 39.6777 172.486 39.332 172.748 39.0391C173.013 38.7461 173.33 38.5176 173.697 38.3535C174.064 38.1855 174.47 38.1016 174.916 38.1016C175.33 38.1016 175.714 38.1777 176.07 38.3301C176.425 38.4785 176.734 38.6895 176.996 38.9629C177.257 39.2324 177.462 39.5566 177.611 39.9355C177.759 40.3145 177.834 40.7324 177.834 41.1895V41.9219H173.597ZM174.91 39.5078C174.562 39.5078 174.267 39.625 174.025 39.8594C173.787 40.0898 173.648 40.3691 173.609 40.6973H176.14C176.132 40.3652 176.011 40.084 175.777 39.8535C175.542 39.623 175.253 39.5078 174.91 39.5078ZM185.232 38.1016C185.697 38.1016 186.119 38.1855 186.498 38.3535C186.877 38.5176 187.201 38.7461 187.471 39.0391C187.74 39.332 187.947 39.6777 188.092 40.0762C188.24 40.4746 188.315 40.9043 188.315 41.3652C188.315 41.8301 188.24 42.2617 188.092 42.6602C187.943 43.0547 187.734 43.3965 187.465 43.6855C187.195 43.9746 186.871 44.2031 186.492 44.3711C186.113 44.5352 185.693 44.6172 185.232 44.6172C184.768 44.6172 184.346 44.5352 183.967 44.3711C183.588 44.2031 183.264 43.9746 182.994 43.6855C182.725 43.3965 182.516 43.0547 182.367 42.6602C182.219 42.2617 182.145 41.8301 182.145 41.3652C182.145 40.9043 182.217 40.4746 182.361 40.0762C182.51 39.6777 182.719 39.332 182.988 39.0391C183.258 38.7461 183.582 38.5176 183.961 38.3535C184.344 38.1855 184.768 38.1016 185.232 38.1016ZM185.232 43.1172C185.463 43.1172 185.666 43.0742 185.842 42.9883C186.022 42.9023 186.172 42.7832 186.293 42.6309C186.414 42.4785 186.506 42.2969 186.568 42.0859C186.631 41.8711 186.662 41.6367 186.662 41.3828V41.3418C186.662 41.0879 186.631 40.8555 186.568 40.6445C186.506 40.4297 186.414 40.2461 186.293 40.0938C186.172 39.9375 186.022 39.8164 185.842 39.7305C185.666 39.6445 185.463 39.6016 185.232 39.6016C185.002 39.6016 184.797 39.6445 184.617 39.7305C184.441 39.8164 184.293 39.9375 184.172 40.0938C184.051 40.2461 183.959 40.4297 183.897 40.6445C183.834 40.8555 183.803 41.0879 183.803 41.3418V41.3828C183.803 41.6367 183.834 41.8711 183.897 42.0859C183.959 42.2969 184.051 42.4785 184.172 42.6309C184.293 42.7832 184.441 42.9023 184.617 42.9883C184.797 43.0742 185.002 43.1172 185.232 43.1172ZM192.275 38.2246H193.476V39.6309H192.275V44.5H190.658V39.6309H189.661V38.2246H190.658V37.457C190.658 37.1836 190.704 36.9473 190.798 36.748C190.892 36.5449 191.021 36.3789 191.185 36.25C191.353 36.1172 191.552 36.0195 191.783 35.957C192.017 35.8906 192.275 35.8574 192.556 35.8574C192.697 35.8574 192.833 35.8613 192.966 35.8691C193.099 35.877 193.222 35.8848 193.335 35.8926C193.449 35.9004 193.548 35.9102 193.634 35.9219C193.724 35.9336 193.792 35.9414 193.839 35.9453L193.704 37.3223C193.658 37.3145 193.599 37.3066 193.529 37.2988C193.462 37.291 193.392 37.2852 193.318 37.2812C193.244 37.2734 193.171 37.2695 193.101 37.2695C193.031 37.2656 192.968 37.2637 192.913 37.2637C192.683 37.2637 192.519 37.3086 192.421 37.3984C192.324 37.4844 192.275 37.5957 192.275 37.7324V38.2246ZM197.775 40.2988C197.775 39.6973 197.865 39.1348 198.045 38.6113C198.228 38.084 198.49 37.627 198.83 37.2402C199.17 36.8496 199.582 36.543 200.066 36.3203C200.551 36.0938 201.096 35.9805 201.701 35.9805C202.139 35.9805 202.543 36.0371 202.914 36.1504C203.289 36.2637 203.625 36.4238 203.922 36.6309C204.223 36.8379 204.48 37.0879 204.695 37.3809C204.91 37.6738 205.08 38.002 205.205 38.3652L203.57 38.9102C203.523 38.7539 203.449 38.5938 203.348 38.4297C203.246 38.2617 203.117 38.1113 202.961 37.9785C202.805 37.8418 202.621 37.7305 202.41 37.6445C202.203 37.5586 201.971 37.5156 201.713 37.5156C201.326 37.5156 200.994 37.5957 200.717 37.7559C200.443 37.9121 200.219 38.1211 200.043 38.3828C199.867 38.6406 199.736 38.9355 199.65 39.2676C199.568 39.5957 199.527 39.9316 199.527 40.2754V40.3223C199.527 40.6699 199.568 41.0098 199.65 41.3418C199.736 41.6699 199.867 41.9629 200.043 42.2207C200.219 42.4785 200.443 42.6875 200.717 42.8477C200.994 43.0039 201.326 43.082 201.713 43.082C201.971 43.082 202.203 43.0391 202.41 42.9531C202.621 42.8672 202.805 42.7578 202.961 42.625C203.117 42.4883 203.246 42.3379 203.348 42.1738C203.449 42.0098 203.523 41.8496 203.57 41.6934L205.205 42.2324C205.08 42.5957 204.91 42.9238 204.695 43.2168C204.48 43.5098 204.223 43.7617 203.922 43.9727C203.625 44.1797 203.289 44.3398 202.914 44.4531C202.543 44.5625 202.139 44.6172 201.701 44.6172C201.096 44.6172 200.551 44.5059 200.066 44.2832C199.582 44.0605 199.17 43.7539 198.83 43.3633C198.49 42.9727 198.228 42.5156 198.045 41.9922C197.865 41.4688 197.775 40.9043 197.775 40.2988ZM209.734 38.1016C210.198 38.1016 210.62 38.1855 210.999 38.3535C211.378 38.5176 211.702 38.7461 211.972 39.0391C212.241 39.332 212.448 39.6777 212.593 40.0762C212.741 40.4746 212.816 40.9043 212.816 41.3652C212.816 41.8301 212.741 42.2617 212.593 42.6602C212.445 43.0547 212.236 43.3965 211.966 43.6855C211.696 43.9746 211.372 44.2031 210.993 44.3711C210.614 44.5352 210.195 44.6172 209.734 44.6172C209.269 44.6172 208.847 44.5352 208.468 44.3711C208.089 44.2031 207.765 43.9746 207.495 43.6855C207.226 43.3965 207.017 43.0547 206.868 42.6602C206.72 42.2617 206.646 41.8301 206.646 41.3652C206.646 40.9043 206.718 40.4746 206.863 40.0762C207.011 39.6777 207.22 39.332 207.489 39.0391C207.759 38.7461 208.083 38.5176 208.462 38.3535C208.845 38.1855 209.269 38.1016 209.734 38.1016ZM209.734 43.1172C209.964 43.1172 210.167 43.0742 210.343 42.9883C210.523 42.9023 210.673 42.7832 210.794 42.6309C210.915 42.4785 211.007 42.2969 211.07 42.0859C211.132 41.8711 211.163 41.6367 211.163 41.3828V41.3418C211.163 41.0879 211.132 40.8555 211.07 40.6445C211.007 40.4297 210.915 40.2461 210.794 40.0938C210.673 39.9375 210.523 39.8164 210.343 39.7305C210.167 39.6445 209.964 39.6016 209.734 39.6016C209.503 39.6016 209.298 39.6445 209.118 39.7305C208.943 39.8164 208.794 39.9375 208.673 40.0938C208.552 40.2461 208.46 40.4297 208.398 40.6445C208.335 40.8555 208.304 41.0879 208.304 41.3418V41.3828C208.304 41.6367 208.335 41.8711 208.398 42.0859C208.46 42.2969 208.552 42.4785 208.673 42.6309C208.794 42.7832 208.943 42.9023 209.118 42.9883C209.298 43.0742 209.503 43.1172 209.734 43.1172ZM219.899 44.5H218.276V40.8496C218.276 40.627 218.25 40.4395 218.2 40.2871C218.153 40.1309 218.086 40.0059 218 39.9121C217.915 39.8145 217.815 39.7461 217.702 39.707C217.588 39.6641 217.465 39.6426 217.333 39.6426C217.176 39.6426 217.03 39.6699 216.893 39.7246C216.76 39.7793 216.643 39.8652 216.541 39.9824C216.444 40.0996 216.366 40.25 216.307 40.4336C216.252 40.6133 216.225 40.8281 216.225 41.0781V44.5H214.608V38.2246H216.225V38.7754C216.432 38.5449 216.672 38.375 216.946 38.2656C217.223 38.1562 217.52 38.1016 217.836 38.1016C218.161 38.1016 218.463 38.168 218.745 38.3008C219.03 38.4336 219.266 38.6523 219.454 38.957C219.563 38.8008 219.688 38.668 219.829 38.5586C219.973 38.4492 220.127 38.3613 220.291 38.2949C220.456 38.2285 220.625 38.1797 220.801 38.1484C220.981 38.1172 221.165 38.1016 221.352 38.1016C221.704 38.1016 222.016 38.1602 222.29 38.2773C222.567 38.3906 222.801 38.5449 222.993 38.7402C223.184 38.9355 223.331 39.1602 223.432 39.4141C223.534 39.668 223.584 39.9355 223.584 40.2168V44.5H221.95V40.8496C221.95 40.627 221.924 40.4395 221.874 40.2871C221.827 40.1309 221.76 40.0059 221.674 39.9121C221.588 39.8145 221.487 39.7461 221.37 39.707C221.256 39.6641 221.133 39.6426 221 39.6426C220.844 39.6426 220.7 39.6699 220.567 39.7246C220.434 39.7793 220.317 39.8652 220.215 39.9824C220.118 40.0996 220.04 40.25 219.981 40.4336C219.926 40.6133 219.899 40.8281 219.899 41.0781V44.5ZM227.269 46.4805H225.652V38.2246H227.269V38.7637C227.445 38.5801 227.662 38.4238 227.92 38.2949C228.177 38.166 228.49 38.1016 228.857 38.1016C229.271 38.1016 229.646 38.1855 229.982 38.3535C230.322 38.5176 230.613 38.7461 230.855 39.0391C231.097 39.3281 231.285 39.6719 231.418 40.0703C231.551 40.4688 231.617 40.9004 231.617 41.3652C231.617 41.8301 231.549 42.2617 231.412 42.6602C231.275 43.0586 231.084 43.4023 230.838 43.6914C230.592 43.9805 230.297 44.207 229.953 44.3711C229.609 44.5352 229.23 44.6172 228.816 44.6172C228.633 44.6172 228.465 44.5996 228.312 44.5645C228.164 44.5332 228.027 44.4883 227.902 44.4297C227.777 44.3711 227.662 44.3027 227.556 44.2246C227.451 44.1426 227.355 44.0547 227.269 43.9609V46.4805ZM227.222 41.9453C227.222 42.1133 227.252 42.2695 227.31 42.4141C227.373 42.5547 227.461 42.6777 227.574 42.7832C227.687 42.8887 227.822 42.9707 227.978 43.0293C228.138 43.0879 228.318 43.1172 228.517 43.1172C228.748 43.1172 228.951 43.0762 229.127 42.9941C229.306 42.9082 229.457 42.7891 229.578 42.6367C229.699 42.4844 229.791 42.3047 229.853 42.0977C229.916 41.8867 229.947 41.6562 229.947 41.4062V41.3301C229.947 41.0801 229.916 40.8496 229.853 40.6387C229.791 40.4277 229.699 40.2461 229.578 40.0938C229.457 39.9375 229.306 39.8164 229.127 39.7305C228.951 39.6445 228.748 39.6016 228.517 39.6016C228.318 39.6016 228.138 39.6309 227.978 39.6895C227.822 39.748 227.687 39.8301 227.574 39.9355C227.461 40.041 227.373 40.166 227.31 40.3105C227.252 40.4551 227.222 40.6113 227.222 40.7793V41.9453ZM234.769 41.9219C234.796 42.1094 234.855 42.2812 234.944 42.4375C235.038 42.5938 235.155 42.7285 235.296 42.8418C235.437 42.9512 235.599 43.0371 235.782 43.0996C235.966 43.1621 236.161 43.1934 236.368 43.1934C236.606 43.1934 236.864 43.1484 237.142 43.0586C237.419 42.9648 237.673 42.8301 237.903 42.6543L238.683 43.791C238.39 44.0371 238.03 44.2363 237.605 44.3887C237.179 44.541 236.726 44.6172 236.245 44.6172C235.812 44.6172 235.403 44.543 235.021 44.3945C234.638 44.2461 234.302 44.0312 234.013 43.75C233.728 43.4688 233.501 43.127 233.333 42.7246C233.169 42.3223 233.087 41.8691 233.087 41.3652C233.087 40.9043 233.159 40.4746 233.304 40.0762C233.452 39.6777 233.657 39.332 233.919 39.0391C234.185 38.7461 234.501 38.5176 234.868 38.3535C235.235 38.1855 235.642 38.1016 236.087 38.1016C236.501 38.1016 236.886 38.1777 237.241 38.3301C237.597 38.4785 237.905 38.6895 238.167 38.9629C238.429 39.2324 238.634 39.5566 238.782 39.9355C238.931 40.3145 239.005 40.7324 239.005 41.1895V41.9219H234.769ZM236.081 39.5078C235.733 39.5078 235.439 39.625 235.196 39.8594C234.958 40.0898 234.819 40.3691 234.78 40.6973H237.312C237.304 40.3652 237.183 40.084 236.948 39.8535C236.714 39.623 236.425 39.5078 236.081 39.5078ZM243.071 42.6309C243.071 42.7051 243.08 42.7754 243.1 42.8418C243.119 42.9082 243.153 42.9668 243.2 43.0176C243.25 43.0645 243.321 43.1016 243.41 43.1289C243.5 43.1562 243.616 43.1699 243.756 43.1699C243.815 43.1699 243.881 43.168 243.955 43.1641C244.03 43.1562 244.104 43.1484 244.178 43.1406C244.252 43.1328 244.321 43.123 244.383 43.1113C244.45 43.0996 244.504 43.0898 244.547 43.082L244.694 44.5117C244.541 44.5312 244.383 44.5488 244.219 44.5645C244.078 44.5801 243.922 44.5918 243.75 44.5996C243.578 44.6113 243.405 44.6172 243.229 44.6172C242.67 44.6172 242.235 44.4902 241.922 44.2363C241.61 43.9824 241.453 43.5781 241.453 43.0234V39.6309H240.323V38.2246H241.453V36.4492L243.071 36.0156V38.2246H244.717V39.6309H243.071V42.6309ZM247.81 41.9219C247.837 42.1094 247.896 42.2812 247.986 42.4375C248.08 42.5938 248.197 42.7285 248.337 42.8418C248.478 42.9512 248.64 43.0371 248.824 43.0996C249.007 43.1621 249.203 43.1934 249.41 43.1934C249.648 43.1934 249.906 43.1484 250.183 43.0586C250.461 42.9648 250.714 42.8301 250.945 42.6543L251.724 43.791C251.431 44.0371 251.072 44.2363 250.646 44.3887C250.22 44.541 249.767 44.6172 249.287 44.6172C248.853 44.6172 248.445 44.543 248.062 44.3945C247.679 44.2461 247.343 44.0312 247.054 43.75C246.769 43.4688 246.543 43.127 246.375 42.7246C246.211 42.3223 246.129 41.8691 246.129 41.3652C246.129 40.9043 246.201 40.4746 246.345 40.0762C246.494 39.6777 246.699 39.332 246.961 39.0391C247.226 38.7461 247.543 38.5176 247.91 38.3535C248.277 38.1855 248.683 38.1016 249.129 38.1016C249.543 38.1016 249.927 38.1777 250.283 38.3301C250.638 38.4785 250.947 38.6895 251.209 38.9629C251.47 39.2324 251.675 39.5566 251.824 39.9355C251.972 40.3145 252.046 40.7324 252.046 41.1895V41.9219H247.81ZM249.123 39.5078C248.775 39.5078 248.48 39.625 248.238 39.8594C248 40.0898 247.861 40.3691 247.822 40.6973H250.353C250.345 40.3652 250.224 40.084 249.99 39.8535C249.755 39.623 249.466 39.5078 249.123 39.5078ZM253.798 38.2246H255.415V38.7637C255.501 38.6777 255.597 38.5957 255.702 38.5176C255.811 38.4355 255.931 38.3652 256.059 38.3066C256.188 38.2441 256.331 38.1953 256.487 38.1602C256.647 38.1211 256.823 38.1016 257.015 38.1016C257.354 38.1016 257.659 38.1582 257.929 38.2715C258.198 38.3809 258.425 38.5332 258.608 38.7285C258.796 38.9238 258.938 39.1523 259.036 39.4141C259.134 39.6758 259.182 39.959 259.182 40.2637V44.5H257.565V40.8496C257.565 40.627 257.54 40.4395 257.489 40.2871C257.438 40.1309 257.368 40.0059 257.278 39.9121C257.192 39.8145 257.089 39.7441 256.968 39.7012C256.85 39.6543 256.722 39.6309 256.581 39.6309C256.417 39.6309 256.263 39.6602 256.118 39.7188C255.977 39.7773 255.854 39.8672 255.749 39.9883C255.643 40.1055 255.561 40.2539 255.503 40.4336C255.444 40.6133 255.415 40.8242 255.415 41.0664V44.5H253.798V38.2246ZM262.598 41.3945C262.598 41.5977 262.625 41.8027 262.68 42.0098C262.735 42.2129 262.819 42.3965 262.932 42.5605C263.045 42.7246 263.19 42.8594 263.365 42.9648C263.545 43.0664 263.758 43.1172 264.004 43.1172C264.164 43.1172 264.309 43.0957 264.438 43.0527C264.57 43.0098 264.688 42.9512 264.789 42.877C264.895 42.7988 264.986 42.709 265.065 42.6074C265.147 42.502 265.217 42.3887 265.276 42.2676L266.694 43C266.592 43.2461 266.451 43.4688 266.272 43.668C266.096 43.8672 265.891 44.0371 265.656 44.1777C265.422 44.3184 265.162 44.4258 264.877 44.5C264.592 44.5781 264.289 44.6172 263.969 44.6172C263.527 44.6172 263.121 44.5352 262.75 44.3711C262.379 44.2031 262.059 43.9746 261.789 43.6855C261.52 43.3965 261.309 43.0547 261.156 42.6602C261.004 42.2617 260.928 41.8301 260.928 41.3652C260.928 40.9043 261.004 40.4746 261.156 40.0762C261.309 39.6777 261.52 39.332 261.789 39.0391C262.059 38.7461 262.379 38.5176 262.75 38.3535C263.121 38.1855 263.527 38.1016 263.969 38.1016C264.289 38.1016 264.592 38.1406 264.877 38.2188C265.162 38.293 265.422 38.4023 265.656 38.5469C265.891 38.6875 266.096 38.8574 266.272 39.0566C266.451 39.2559 266.592 39.4785 266.694 39.7246L265.276 40.457C265.217 40.3359 265.147 40.2246 265.065 40.123C264.986 40.0176 264.895 39.9277 264.789 39.8535C264.688 39.7754 264.57 39.7148 264.438 39.6719C264.309 39.625 264.164 39.6016 264.004 39.6016C263.758 39.6016 263.545 39.6543 263.365 39.7598C263.19 39.8613 263.045 39.9961 262.932 40.1641C262.819 40.3281 262.735 40.5137 262.68 40.7207C262.625 40.9277 262.598 41.1348 262.598 41.3418V41.3945ZM269.271 45.2324C269.455 45.2324 269.589 45.1992 269.675 45.1328C269.765 45.0664 269.835 44.959 269.886 44.8105L269.945 44.6172L267.771 38.2246H269.57L270.818 42.5547L271.855 38.2246H273.63L271.515 45.2793C271.445 45.5137 271.347 45.7148 271.222 45.8828C271.097 46.0508 270.949 46.1875 270.777 46.293C270.605 46.4023 270.414 46.4824 270.203 46.5332C269.996 46.584 269.773 46.6094 269.535 46.6094C269.437 46.6094 269.324 46.6055 269.195 46.5977C269.07 46.5898 268.939 46.5781 268.802 46.5625C268.669 46.5508 268.537 46.5352 268.404 46.5156C268.275 46.4961 268.156 46.4727 268.046 46.4453L268.351 45.1211C268.445 45.1445 268.542 45.1641 268.644 45.1797C268.734 45.1953 268.831 45.207 268.937 45.2148C269.046 45.2266 269.158 45.2324 269.271 45.2324Z" fill="#5497C6"/>
<line x1="78" y1="122" x2="112.484" y2="122" stroke="#5497C6" stroke-width="2"/>
<line x1="78" y1="127" x2="131.053" y2="127" stroke="#5497C6" stroke-width="4"/>
<line x1="78" y1="136" x2="112.484" y2="136" stroke="#5497C6" stroke-width="2"/>
<line x1="78" y1="141" x2="131.053" y2="141" stroke="#5497C6" stroke-width="4"/>
<line x1="78" y1="151" x2="112.484" y2="151" stroke="#5497C6" stroke-width="2"/>
<line x1="78" y1="156" x2="131.053" y2="156" stroke="#5497C6" stroke-width="4"/>
<line x1="8.48421" y1="170" x2="276.484" y2="170" stroke="#5497C6" stroke-width="2"/>
<line x1="8.48421" y1="174" x2="131.484" y2="174" stroke="#5497C6" stroke-width="2"/>
<line x1="150.947" y1="122" x2="185.432" y2="122" stroke="#5497C6" stroke-width="2"/>
<line x1="150.947" y1="127" x2="204" y2="127" stroke="#5497C6" stroke-width="4"/>
<line x1="150.947" y1="136" x2="185.432" y2="136" stroke="#5497C6" stroke-width="2"/>
<line x1="150.947" y1="141" x2="204" y2="141" stroke="#5497C6" stroke-width="4"/>
<line x1="223" y1="122" x2="257.45" y2="122" stroke="#5497C6" stroke-width="2"/>
<line x1="223" y1="129" x2="276" y2="129" stroke="#5497C6" stroke-width="8"/>
<line x1="223" y1="147" x2="257.45" y2="147" stroke="#5497C6" stroke-width="2"/>
<line x1="223" y1="154" x2="276" y2="154" stroke="#5497C6" stroke-width="8"/>
<line x1="78" y1="71" x2="109" y2="71" stroke="#5497C6" stroke-width="8"/>
<line x1="78" y1="83" x2="109" y2="83" stroke="#5497C6" stroke-width="8"/>
<line x1="113" y1="71" x2="276" y2="71" stroke="#5497C6" stroke-width="8"/>
<line x1="113" y1="83" x2="250" y2="83" stroke="#5497C6" stroke-width="8"/>
<path d="M96.6846 103.006C96.4053 102.949 96.126 102.82 95.8467 102.619C95.5674 102.419 95.2988 102.175 95.041 101.889C94.7904 101.602 94.5505 101.284 94.3213 100.933C94.0993 100.582 93.9059 100.227 93.7412 99.8691C93.5765 99.5111 93.4476 99.1637 93.3545 98.8271C93.2614 98.4906 93.2148 98.1898 93.2148 97.9248C93.2148 97.889 93.2148 97.846 93.2148 97.7959C93.222 97.7458 93.2292 97.6992 93.2363 97.6562C93.2507 97.6061 93.2757 97.5667 93.3115 97.5381C93.3473 97.5023 93.3939 97.4844 93.4512 97.4844C93.6302 97.4844 93.7842 97.5488 93.9131 97.6777C94.042 97.7995 94.1602 97.9642 94.2676 98.1719C94.375 98.3796 94.4753 98.6159 94.5684 98.8809C94.6615 99.1458 94.7546 99.4144 94.8477 99.6865C94.9479 99.9587 95.0518 100.227 95.1592 100.492C95.2666 100.757 95.3848 100.993 95.5137 101.201C95.6497 101.409 95.8037 101.577 95.9756 101.706C96.1475 101.828 96.3444 101.889 96.5664 101.889C96.5807 101.889 96.5986 101.885 96.6201 101.878C96.6488 101.871 96.6702 101.867 96.6846 101.867C96.8851 101.688 97.0641 101.452 97.2217 101.158C97.3864 100.857 97.5368 100.535 97.6729 100.191C97.8089 99.8477 97.9414 99.4932 98.0703 99.1279C98.1992 98.7627 98.3317 98.4225 98.4678 98.1074C98.611 97.7923 98.7578 97.5166 98.9082 97.2803C99.0658 97.0439 99.2448 96.8792 99.4453 96.7861L99.9072 97.2588C99.9645 97.3161 99.9717 97.4342 99.9287 97.6133C99.8929 97.7852 99.8249 98.0036 99.7246 98.2686C99.6315 98.5264 99.5133 98.8164 99.3701 99.1387C99.2269 99.4538 99.0765 99.7832 98.9189 100.127C98.7614 100.471 98.6038 100.814 98.4463 101.158C98.2887 101.495 98.1455 101.813 98.0166 102.114C97.8949 102.415 97.7946 102.684 97.7158 102.92C97.637 103.156 97.5977 103.342 97.5977 103.479C97.5977 103.908 97.6585 104.324 97.7803 104.725C97.9092 105.126 98.0452 105.527 98.1885 105.928C98.3317 106.322 98.4642 106.719 98.5859 107.12C98.7077 107.514 98.7686 107.919 98.7686 108.334C98.7686 108.391 98.7686 108.466 98.7686 108.56C98.7686 108.646 98.7542 108.728 98.7256 108.807C98.7041 108.885 98.6576 108.946 98.5859 108.989C98.5215 109.032 98.4248 109.036 98.2959 109C98.0309 108.613 97.7982 108.176 97.5977 107.689C97.3971 107.195 97.2253 106.683 97.082 106.153C96.9388 105.623 96.8314 105.09 96.7598 104.553C96.6953 104.008 96.6702 103.493 96.6846 103.006ZM100.782 106.819C100.782 106.375 100.886 105.964 101.094 105.584C101.301 105.197 101.573 104.868 101.91 104.596C102.254 104.316 102.637 104.098 103.059 103.94C103.489 103.783 103.922 103.704 104.359 103.704C104.603 103.704 104.818 103.783 105.004 103.94C105.197 104.098 105.358 104.291 105.487 104.521C105.616 104.743 105.713 104.979 105.777 105.229C105.849 105.48 105.885 105.699 105.885 105.885C105.885 106.286 105.788 106.676 105.595 107.056C105.401 107.428 105.151 107.761 104.843 108.055C104.535 108.341 104.187 108.574 103.801 108.753C103.414 108.932 103.027 109.021 102.64 109.021C102.297 109.021 102.007 108.964 101.77 108.85C101.534 108.728 101.344 108.57 101.201 108.377C101.058 108.176 100.95 107.944 100.879 107.679C100.814 107.407 100.782 107.12 100.782 106.819ZM101.695 106.927C101.695 107.113 101.709 107.278 101.738 107.421C101.774 107.557 101.831 107.675 101.91 107.775C101.996 107.876 102.107 107.954 102.243 108.012C102.379 108.062 102.547 108.087 102.748 108.087C103.013 108.087 103.278 108.015 103.543 107.872C103.808 107.722 104.044 107.535 104.252 107.313C104.467 107.084 104.639 106.834 104.767 106.562C104.896 106.289 104.961 106.024 104.961 105.767C104.961 105.652 104.95 105.527 104.929 105.391C104.907 105.255 104.871 105.129 104.821 105.015C104.771 104.9 104.699 104.803 104.606 104.725C104.513 104.646 104.395 104.606 104.252 104.606C104.123 104.606 103.969 104.649 103.79 104.735C103.618 104.821 103.435 104.932 103.242 105.068C103.056 105.204 102.87 105.358 102.683 105.53C102.504 105.702 102.34 105.874 102.189 106.046C102.039 106.218 101.917 106.382 101.824 106.54C101.738 106.698 101.695 106.826 101.695 106.927ZM106.964 104.617C106.964 104.574 106.964 104.499 106.964 104.392C106.971 104.277 106.974 104.159 106.974 104.037C106.974 103.915 106.974 103.804 106.974 103.704C106.981 103.597 106.985 103.521 106.985 103.479C107.035 103.393 107.092 103.31 107.157 103.231C107.229 103.146 107.3 103.088 107.372 103.06C107.451 103.024 107.533 103.017 107.619 103.038C107.712 103.06 107.805 103.131 107.898 103.253V103.339V103.479C107.891 103.514 107.877 103.6 107.855 103.736C107.834 103.865 107.809 104.008 107.78 104.166C107.751 104.324 107.723 104.47 107.694 104.606C107.673 104.735 107.662 104.818 107.662 104.854C107.662 104.99 107.676 105.161 107.705 105.369C107.733 105.57 107.773 105.781 107.823 106.003C107.88 106.225 107.948 106.447 108.027 106.669C108.113 106.891 108.213 107.091 108.328 107.271C108.442 107.442 108.568 107.586 108.704 107.7C108.847 107.815 109.012 107.872 109.198 107.872C109.427 107.872 109.628 107.811 109.799 107.689C109.979 107.568 110.132 107.41 110.261 107.217C110.39 107.023 110.494 106.805 110.573 106.562C110.659 106.318 110.727 106.075 110.777 105.831C110.827 105.58 110.863 105.34 110.884 105.111C110.906 104.882 110.917 104.682 110.917 104.51C110.917 104.338 110.902 104.177 110.874 104.026C110.852 103.869 110.824 103.715 110.788 103.564C110.752 103.414 110.72 103.267 110.691 103.124C110.67 102.974 110.659 102.823 110.659 102.673C110.659 102.537 110.705 102.44 110.799 102.383C110.899 102.326 111.01 102.297 111.132 102.297C111.282 102.297 111.404 102.343 111.497 102.437C111.59 102.522 111.661 102.633 111.712 102.77C111.769 102.906 111.805 103.063 111.819 103.242C111.841 103.414 111.851 103.586 111.851 103.758C111.851 103.93 111.848 104.094 111.841 104.252C111.833 104.402 111.83 104.524 111.83 104.617C111.83 104.861 111.812 105.136 111.776 105.444C111.74 105.752 111.676 106.071 111.583 106.4C111.497 106.723 111.386 107.041 111.25 107.356C111.121 107.672 110.96 107.954 110.766 108.205C110.58 108.449 110.362 108.646 110.111 108.796C109.868 108.946 109.592 109.021 109.284 109.021C108.962 109.021 108.679 108.946 108.435 108.796C108.192 108.638 107.984 108.434 107.812 108.184C107.647 107.926 107.508 107.636 107.393 107.313C107.279 106.991 107.189 106.669 107.125 106.347C107.067 106.024 107.024 105.713 106.996 105.412C106.974 105.104 106.964 104.839 106.964 104.617ZM113.145 104.488C113.145 104.424 113.149 104.359 113.156 104.295C113.163 104.223 113.177 104.162 113.199 104.112C113.22 104.055 113.252 104.008 113.295 103.973C113.346 103.937 113.414 103.919 113.5 103.919C113.571 103.919 113.65 103.976 113.736 104.091C113.829 104.198 113.922 104.338 114.015 104.51C114.108 104.674 114.198 104.857 114.284 105.058C114.377 105.258 114.456 105.444 114.52 105.616C114.592 105.781 114.649 105.924 114.692 106.046C114.735 106.168 114.76 106.232 114.767 106.239C114.86 105.989 114.964 105.716 115.079 105.423C115.193 105.129 115.333 104.857 115.498 104.606C115.669 104.349 115.87 104.134 116.099 103.962C116.335 103.79 116.622 103.704 116.959 103.704C117.13 103.704 117.292 103.733 117.442 103.79C117.599 103.84 117.736 103.919 117.85 104.026C117.972 104.127 118.069 104.248 118.14 104.392C118.212 104.535 118.248 104.7 118.248 104.886C118.248 105.043 118.183 105.154 118.054 105.219C117.932 105.283 117.793 105.315 117.635 105.315H117.528L117.066 104.854C117.052 104.854 117.041 104.85 117.034 104.843C117.019 104.843 117.005 104.843 116.991 104.843C116.984 104.836 116.973 104.832 116.959 104.832C116.708 104.832 116.511 104.904 116.368 105.047C116.232 105.183 116.128 105.355 116.056 105.562C115.985 105.763 115.938 105.978 115.917 106.207C115.902 106.429 115.895 106.633 115.895 106.819C115.895 106.963 115.909 107.109 115.938 107.26C115.967 107.403 115.999 107.546 116.035 107.689C116.07 107.826 116.103 107.969 116.131 108.119C116.16 108.262 116.174 108.413 116.174 108.57C116.174 108.871 116.013 109.021 115.691 109.021C115.512 109.021 115.326 108.928 115.132 108.742C114.939 108.549 114.746 108.305 114.552 108.012C114.366 107.718 114.187 107.396 114.015 107.045C113.843 106.687 113.693 106.34 113.564 106.003C113.435 105.666 113.331 105.362 113.252 105.09C113.181 104.818 113.145 104.617 113.145 104.488ZM126.529 108.538C126.564 108.366 126.654 108.227 126.797 108.119C126.947 108.005 127.116 107.901 127.302 107.808C127.495 107.715 127.696 107.629 127.904 107.55C128.111 107.464 128.301 107.374 128.473 107.281C128.652 107.188 128.799 107.081 128.913 106.959C129.028 106.83 129.085 106.676 129.085 106.497C129.085 106.268 129.024 106.078 128.903 105.928C128.788 105.777 128.63 105.648 128.43 105.541C128.237 105.434 128.015 105.344 127.764 105.272C127.513 105.201 127.255 105.129 126.99 105.058C126.733 104.979 126.478 104.896 126.228 104.811C125.977 104.717 125.751 104.603 125.551 104.467C125.358 104.331 125.2 104.166 125.078 103.973C124.964 103.779 124.906 103.539 124.906 103.253C124.906 103.017 124.953 102.795 125.046 102.587C125.146 102.372 125.275 102.172 125.433 101.985C125.598 101.792 125.784 101.617 125.991 101.459C126.206 101.301 126.428 101.169 126.657 101.062C126.894 100.954 127.13 100.872 127.366 100.814C127.603 100.75 127.821 100.718 128.022 100.718H128.14C128.204 100.739 128.29 100.775 128.398 100.825C128.505 100.875 128.609 100.925 128.709 100.976C128.809 101.019 128.895 101.062 128.967 101.104C129.039 101.14 129.074 101.162 129.074 101.169V101.416C128.938 101.43 128.763 101.459 128.548 101.502C128.333 101.538 128.108 101.588 127.871 101.652C127.635 101.717 127.395 101.799 127.152 101.899C126.908 101.993 126.69 102.104 126.496 102.232C126.303 102.361 126.145 102.512 126.024 102.684C125.902 102.848 125.841 103.038 125.841 103.253C125.841 103.561 125.948 103.804 126.163 103.983C126.378 104.155 126.647 104.299 126.969 104.413C127.291 104.528 127.642 104.632 128.022 104.725C128.408 104.811 128.763 104.918 129.085 105.047C129.407 105.169 129.676 105.333 129.891 105.541C130.106 105.742 130.213 106.014 130.213 106.357C130.213 106.544 130.156 106.741 130.041 106.948C129.934 107.149 129.787 107.349 129.601 107.55C129.422 107.743 129.218 107.929 128.988 108.108C128.759 108.287 128.523 108.445 128.279 108.581C128.043 108.71 127.81 108.817 127.581 108.903C127.352 108.982 127.148 109.021 126.969 109.021C126.912 109.021 126.851 109.014 126.786 109C126.722 108.986 126.665 108.964 126.614 108.936C126.571 108.9 126.536 108.85 126.507 108.785C126.486 108.721 126.493 108.638 126.529 108.538ZM131.765 104.972C131.765 104.929 131.765 104.861 131.765 104.768C131.772 104.667 131.775 104.563 131.775 104.456C131.783 104.349 131.786 104.245 131.786 104.145C131.793 104.044 131.797 103.973 131.797 103.93C131.876 103.815 131.976 103.722 132.098 103.65C132.227 103.579 132.356 103.521 132.484 103.479C132.506 103.865 132.567 104.277 132.667 104.714C132.767 105.151 132.875 105.591 132.989 106.035C133.104 106.472 133.204 106.905 133.29 107.335C133.383 107.765 133.43 108.166 133.43 108.538C133.43 108.86 133.265 109.021 132.936 109.021C132.735 109.021 132.567 108.939 132.431 108.774C132.295 108.61 132.184 108.402 132.098 108.151C132.019 107.894 131.954 107.611 131.904 107.303C131.854 106.988 131.818 106.68 131.797 106.379C131.783 106.078 131.772 105.802 131.765 105.552C131.765 105.301 131.765 105.108 131.765 104.972ZM131.915 100.943C132.051 101.001 132.166 101.094 132.259 101.223C132.352 101.352 132.391 101.47 132.377 101.577C132.37 101.677 132.291 101.749 132.141 101.792C131.99 101.828 131.74 101.785 131.389 101.663C131.389 101.47 131.425 101.301 131.496 101.158C131.575 101.015 131.715 100.943 131.915 100.943ZM137.28 114.715C137.681 114.715 138.039 114.64 138.354 114.489C138.669 114.346 138.934 114.146 139.149 113.888C139.371 113.637 139.54 113.347 139.654 113.018C139.776 112.695 139.837 112.359 139.837 112.008C139.837 111.829 139.826 111.592 139.805 111.299C139.79 111.005 139.765 110.687 139.729 110.343C139.694 109.999 139.64 109.648 139.568 109.29C139.504 108.932 139.421 108.595 139.321 108.28C139.221 107.958 139.096 107.679 138.945 107.442C138.802 107.199 138.634 107.027 138.44 106.927C138.254 107.07 138.071 107.202 137.892 107.324C137.713 107.439 137.527 107.535 137.334 107.614C137.141 107.693 136.94 107.757 136.732 107.808C136.525 107.851 136.303 107.872 136.066 107.872C135.758 107.872 135.493 107.843 135.271 107.786C135.057 107.729 134.874 107.632 134.724 107.496C134.58 107.36 134.473 107.181 134.401 106.959C134.33 106.737 134.294 106.458 134.294 106.121C134.294 105.885 134.351 105.656 134.466 105.434C134.58 105.204 134.731 104.993 134.917 104.8C135.11 104.599 135.325 104.417 135.561 104.252C135.805 104.087 136.052 103.944 136.303 103.822C136.56 103.701 136.811 103.607 137.055 103.543C137.305 103.479 137.527 103.446 137.721 103.446C137.907 103.446 138.061 103.453 138.182 103.468C138.304 103.475 138.408 103.504 138.494 103.554C138.58 103.597 138.652 103.668 138.709 103.769C138.773 103.862 138.834 103.991 138.891 104.155C139.056 104.714 139.246 105.315 139.461 105.96C139.676 106.604 139.88 107.267 140.073 107.947C140.266 108.628 140.428 109.312 140.557 109.999C140.693 110.694 140.761 111.363 140.761 112.008C140.761 112.581 140.678 113.064 140.514 113.458C140.356 113.859 140.145 114.185 139.88 114.436C139.622 114.693 139.325 114.89 138.988 115.026C138.659 115.162 138.326 115.248 137.989 115.284C137.653 115.327 137.327 115.338 137.012 115.316C136.696 115.295 136.424 115.252 136.195 115.188C135.966 115.13 135.791 115.062 135.669 114.983C135.554 114.905 135.526 114.837 135.583 114.779C135.647 114.729 135.812 114.693 136.077 114.672C136.342 114.65 136.743 114.665 137.28 114.715ZM137.431 104.349C136.901 104.463 136.471 104.624 136.141 104.832C135.819 105.033 135.576 105.251 135.411 105.487C135.253 105.716 135.168 105.949 135.153 106.186C135.139 106.415 135.182 106.612 135.282 106.776C135.382 106.941 135.526 107.066 135.712 107.152C135.905 107.231 136.124 107.235 136.367 107.163C136.611 107.084 136.868 106.92 137.141 106.669C137.42 106.418 137.699 106.046 137.978 105.552C137.978 105.43 137.978 105.298 137.978 105.154C137.986 105.011 137.975 104.882 137.946 104.768C137.918 104.646 137.864 104.546 137.785 104.467C137.706 104.388 137.588 104.349 137.431 104.349ZM141.388 105.38C141.388 105.194 141.435 105.061 141.528 104.982C141.621 104.896 141.772 104.854 141.979 104.854H142.087C142.108 104.968 142.133 105.101 142.162 105.251C142.19 105.401 142.233 105.555 142.291 105.713C142.348 105.87 142.416 106.017 142.495 106.153C142.574 106.282 142.67 106.386 142.785 106.465C142.792 106.214 142.853 105.974 142.967 105.745C143.089 105.509 143.236 105.301 143.408 105.122C143.587 104.936 143.78 104.782 143.988 104.66C144.203 104.531 144.414 104.445 144.622 104.402H144.858C145.202 104.402 145.495 104.481 145.739 104.639C145.982 104.789 146.183 104.99 146.341 105.24C146.505 105.484 146.631 105.763 146.717 106.078C146.802 106.393 146.867 106.715 146.91 107.045C146.96 107.367 146.989 107.682 146.996 107.99C147.01 108.291 147.017 108.549 147.017 108.764H146.233C146.19 108.334 146.136 107.922 146.072 107.528C146.051 107.371 146.022 107.206 145.986 107.034C145.95 106.855 145.911 106.69 145.868 106.54C145.825 106.382 145.778 106.239 145.728 106.11C145.678 105.974 145.621 105.86 145.556 105.767C145.528 105.738 145.488 105.699 145.438 105.648C145.395 105.598 145.349 105.548 145.299 105.498C145.248 105.448 145.202 105.405 145.159 105.369C145.116 105.333 145.091 105.315 145.084 105.315C144.869 105.258 144.683 105.301 144.525 105.444C144.368 105.58 144.228 105.767 144.106 106.003C143.984 106.239 143.884 106.508 143.805 106.809C143.734 107.109 143.673 107.399 143.623 107.679C143.573 107.951 143.537 108.191 143.515 108.398C143.494 108.599 143.48 108.721 143.472 108.764C143.293 108.893 143.125 108.932 142.967 108.882C142.81 108.825 142.66 108.71 142.516 108.538C142.38 108.366 142.255 108.151 142.14 107.894C142.033 107.636 141.933 107.364 141.84 107.077C141.746 106.784 141.661 106.49 141.582 106.196C141.51 105.903 141.446 105.631 141.388 105.38ZM152.887 107.614C152.615 107.8 152.379 107.969 152.178 108.119C151.985 108.262 151.795 108.384 151.609 108.484C151.423 108.585 151.222 108.66 151.007 108.71C150.8 108.76 150.542 108.785 150.234 108.785C149.568 108.785 149.074 108.61 148.752 108.259C148.429 107.901 148.268 107.371 148.268 106.669C148.268 106.397 148.304 106.114 148.376 105.82C148.447 105.527 148.551 105.237 148.687 104.95C148.83 104.657 148.999 104.381 149.192 104.123C149.385 103.858 149.604 103.625 149.847 103.425C150.091 103.224 150.349 103.067 150.621 102.952C150.9 102.83 151.194 102.77 151.502 102.77C152.017 102.82 152.422 102.949 152.715 103.156C153.009 103.357 153.231 103.618 153.381 103.94C153.532 104.256 153.636 104.61 153.693 105.004C153.75 105.391 153.793 105.792 153.822 106.207C153.858 106.622 153.901 107.038 153.951 107.453C154.001 107.868 154.105 108.252 154.262 108.603C154.169 108.839 154.08 109.004 153.994 109.097C153.915 109.197 153.825 109.215 153.725 109.15C153.625 109.086 153.507 108.928 153.371 108.678C153.242 108.427 153.081 108.073 152.887 107.614ZM149.181 106.69C149.181 107.099 149.256 107.399 149.407 107.593C149.564 107.779 149.84 107.872 150.234 107.872C150.528 107.872 150.807 107.822 151.072 107.722C151.344 107.614 151.58 107.471 151.781 107.292C151.981 107.106 152.142 106.884 152.264 106.626C152.386 106.368 152.447 106.082 152.447 105.767C152.447 105.638 152.45 105.459 152.458 105.229C152.465 104.993 152.45 104.76 152.415 104.531C152.379 104.302 152.311 104.105 152.211 103.94C152.11 103.769 151.96 103.683 151.759 103.683C151.387 103.683 151.043 103.779 150.728 103.973C150.413 104.159 150.141 104.399 149.912 104.692C149.683 104.986 149.503 105.312 149.375 105.67C149.246 106.021 149.181 106.361 149.181 106.69ZM155.363 103.586C155.363 103.564 155.366 103.547 155.373 103.532C155.373 103.518 155.377 103.5 155.384 103.479C155.413 103.443 155.456 103.396 155.513 103.339C155.57 103.282 155.606 103.253 155.621 103.253H157.78C157.78 103.174 157.769 103.049 157.747 102.877C157.726 102.705 157.704 102.515 157.683 102.308C157.669 102.1 157.665 101.885 157.672 101.663C157.679 101.434 157.708 101.23 157.758 101.051C157.815 100.865 157.901 100.714 158.016 100.6C158.138 100.478 158.306 100.417 158.521 100.417C158.521 101.14 158.571 101.72 158.671 102.157C158.772 102.594 158.904 102.931 159.069 103.167C159.241 103.403 159.434 103.557 159.649 103.629C159.864 103.701 160.082 103.733 160.304 103.726C160.533 103.711 160.755 103.675 160.97 103.618C161.185 103.561 161.375 103.521 161.539 103.5C161.711 103.479 161.847 103.496 161.948 103.554C162.048 103.604 162.098 103.729 162.098 103.93C162.098 104.08 162.062 104.188 161.991 104.252C161.926 104.316 161.797 104.367 161.604 104.402C161.547 104.41 161.45 104.424 161.314 104.445C161.185 104.46 161.038 104.474 160.873 104.488C160.709 104.503 160.533 104.521 160.347 104.542C160.161 104.556 159.985 104.571 159.821 104.585C159.656 104.599 159.506 104.61 159.37 104.617C159.233 104.617 159.133 104.617 159.069 104.617C159.069 104.653 159.065 104.714 159.058 104.8C159.051 104.886 159.047 104.943 159.047 104.972C159.047 105.287 159.097 105.595 159.198 105.896C159.298 106.189 159.405 106.483 159.52 106.776C159.642 107.07 159.753 107.364 159.853 107.657C159.953 107.951 160.003 108.255 160.003 108.57C160.003 108.628 159.996 108.688 159.982 108.753C159.975 108.81 159.953 108.864 159.917 108.914C159.889 108.957 159.842 108.989 159.778 109.011C159.72 109.039 159.638 109.036 159.531 109C159.259 108.928 159.054 108.774 158.918 108.538C158.789 108.302 158.693 108.022 158.628 107.7C158.564 107.371 158.521 107.023 158.499 106.658C158.478 106.293 158.442 105.953 158.392 105.638C158.349 105.315 158.277 105.043 158.177 104.821C158.077 104.592 157.916 104.452 157.694 104.402L155.621 103.93C155.592 103.93 155.549 103.901 155.492 103.844C155.434 103.779 155.399 103.733 155.384 103.704C155.377 103.69 155.373 103.672 155.373 103.65C155.366 103.636 155.363 103.615 155.363 103.586ZM163.166 104.617C163.166 104.574 163.166 104.499 163.166 104.392C163.173 104.277 163.177 104.159 163.177 104.037C163.177 103.915 163.177 103.804 163.177 103.704C163.184 103.597 163.188 103.521 163.188 103.479C163.238 103.393 163.295 103.31 163.36 103.231C163.431 103.146 163.503 103.088 163.574 103.06C163.653 103.024 163.736 103.017 163.822 103.038C163.915 103.06 164.008 103.131 164.101 103.253V103.339V103.479C164.094 103.514 164.079 103.6 164.058 103.736C164.036 103.865 164.011 104.008 163.983 104.166C163.954 104.324 163.925 104.47 163.897 104.606C163.875 104.735 163.864 104.818 163.864 104.854C163.864 104.99 163.879 105.161 163.907 105.369C163.936 105.57 163.975 105.781 164.026 106.003C164.083 106.225 164.151 106.447 164.23 106.669C164.316 106.891 164.416 107.091 164.531 107.271C164.645 107.442 164.77 107.586 164.906 107.7C165.05 107.815 165.214 107.872 165.401 107.872C165.63 107.872 165.83 107.811 166.002 107.689C166.181 107.568 166.335 107.41 166.464 107.217C166.593 107.023 166.697 106.805 166.776 106.562C166.862 106.318 166.93 106.075 166.98 105.831C167.03 105.58 167.066 105.34 167.087 105.111C167.109 104.882 167.119 104.682 167.119 104.51C167.119 104.338 167.105 104.177 167.076 104.026C167.055 103.869 167.026 103.715 166.99 103.564C166.955 103.414 166.922 103.267 166.894 103.124C166.872 102.974 166.862 102.823 166.862 102.673C166.862 102.537 166.908 102.44 167.001 102.383C167.101 102.326 167.212 102.297 167.334 102.297C167.485 102.297 167.606 102.343 167.699 102.437C167.793 102.522 167.864 102.633 167.914 102.77C167.972 102.906 168.007 103.063 168.022 103.242C168.043 103.414 168.054 103.586 168.054 103.758C168.054 103.93 168.05 104.094 168.043 104.252C168.036 104.402 168.032 104.524 168.032 104.617C168.032 104.861 168.015 105.136 167.979 105.444C167.943 105.752 167.878 106.071 167.785 106.4C167.699 106.723 167.588 107.041 167.452 107.356C167.323 107.672 167.162 107.954 166.969 108.205C166.783 108.449 166.564 108.646 166.314 108.796C166.07 108.946 165.795 109.021 165.487 109.021C165.164 109.021 164.881 108.946 164.638 108.796C164.394 108.638 164.187 108.434 164.015 108.184C163.85 107.926 163.711 107.636 163.596 107.313C163.481 106.991 163.392 106.669 163.327 106.347C163.27 106.024 163.227 105.713 163.198 105.412C163.177 105.104 163.166 104.839 163.166 104.617ZM169.348 104.488C169.348 104.424 169.351 104.359 169.358 104.295C169.366 104.223 169.38 104.162 169.401 104.112C169.423 104.055 169.455 104.008 169.498 103.973C169.548 103.937 169.616 103.919 169.702 103.919C169.774 103.919 169.853 103.976 169.939 104.091C170.032 104.198 170.125 104.338 170.218 104.51C170.311 104.674 170.4 104.857 170.486 105.058C170.58 105.258 170.658 105.444 170.723 105.616C170.794 105.781 170.852 105.924 170.895 106.046C170.938 106.168 170.963 106.232 170.97 106.239C171.063 105.989 171.167 105.716 171.281 105.423C171.396 105.129 171.536 104.857 171.7 104.606C171.872 104.349 172.073 104.134 172.302 103.962C172.538 103.79 172.825 103.704 173.161 103.704C173.333 103.704 173.494 103.733 173.645 103.79C173.802 103.84 173.938 103.919 174.053 104.026C174.175 104.127 174.271 104.248 174.343 104.392C174.414 104.535 174.45 104.7 174.45 104.886C174.45 105.043 174.386 105.154 174.257 105.219C174.135 105.283 173.996 105.315 173.838 105.315H173.731L173.269 104.854C173.254 104.854 173.244 104.85 173.236 104.843C173.222 104.843 173.208 104.843 173.193 104.843C173.186 104.836 173.176 104.832 173.161 104.832C172.911 104.832 172.714 104.904 172.57 105.047C172.434 105.183 172.33 105.355 172.259 105.562C172.187 105.763 172.141 105.978 172.119 106.207C172.105 106.429 172.098 106.633 172.098 106.819C172.098 106.963 172.112 107.109 172.141 107.26C172.169 107.403 172.202 107.546 172.237 107.689C172.273 107.826 172.305 107.969 172.334 108.119C172.363 108.262 172.377 108.413 172.377 108.57C172.377 108.871 172.216 109.021 171.894 109.021C171.715 109.021 171.528 108.928 171.335 108.742C171.142 108.549 170.948 108.305 170.755 108.012C170.569 107.718 170.39 107.396 170.218 107.045C170.046 106.687 169.896 106.34 169.767 106.003C169.638 105.666 169.534 105.362 169.455 105.09C169.384 104.818 169.348 104.617 169.348 104.488ZM175.497 106.014C175.497 105.627 175.544 105.24 175.637 104.854C175.73 104.467 175.877 104.119 176.077 103.812C176.285 103.504 176.55 103.253 176.872 103.06C177.201 102.866 177.599 102.77 178.064 102.77C178.329 102.77 178.562 102.82 178.763 102.92C178.963 103.013 179.131 103.138 179.268 103.296C179.404 103.453 179.504 103.64 179.568 103.854C179.64 104.062 179.676 104.281 179.676 104.51C179.676 104.875 179.59 105.229 179.418 105.573C179.253 105.917 179.028 106.221 178.741 106.486C178.462 106.744 178.14 106.941 177.774 107.077C177.409 107.206 177.037 107.235 176.657 107.163C176.664 107.371 176.732 107.539 176.861 107.668C176.997 107.79 177.158 107.883 177.345 107.947C177.531 108.012 177.724 108.055 177.925 108.076C178.125 108.09 178.304 108.098 178.462 108.098C178.627 108.098 178.781 108.083 178.924 108.055C179.067 108.026 179.21 107.994 179.353 107.958C179.497 107.922 179.64 107.89 179.783 107.861C179.934 107.833 180.091 107.818 180.256 107.818C180.32 107.818 180.385 107.822 180.449 107.829C180.514 107.836 180.574 107.854 180.632 107.883C180.689 107.904 180.736 107.944 180.771 108.001C180.807 108.051 180.825 108.116 180.825 108.194C180.825 108.33 180.775 108.445 180.675 108.538C180.574 108.624 180.446 108.699 180.288 108.764C180.138 108.828 179.969 108.878 179.783 108.914C179.597 108.943 179.414 108.968 179.235 108.989C179.063 109.004 178.902 109.011 178.752 109.011C178.609 109.018 178.501 109.021 178.43 109.021C177.971 109.021 177.559 108.95 177.194 108.807C176.829 108.656 176.521 108.452 176.27 108.194C176.02 107.929 175.826 107.614 175.69 107.249C175.561 106.877 175.497 106.465 175.497 106.014ZM176.636 105.315C176.636 105.566 176.668 105.749 176.732 105.863C176.804 105.978 176.972 106.035 177.237 106.035C177.423 106.035 177.606 106.003 177.785 105.938C177.964 105.867 178.125 105.77 178.268 105.648C178.419 105.527 178.537 105.383 178.623 105.219C178.709 105.054 178.752 104.875 178.752 104.682C178.752 104.574 178.741 104.463 178.72 104.349C178.705 104.234 178.67 104.13 178.612 104.037C178.555 103.937 178.48 103.858 178.387 103.801C178.301 103.736 178.186 103.704 178.043 103.704C177.828 103.704 177.631 103.754 177.452 103.854C177.28 103.948 177.133 104.073 177.012 104.23C176.89 104.381 176.797 104.553 176.732 104.746C176.668 104.932 176.636 105.122 176.636 105.315Z" fill="black"/>
</svg>
